<svg width="151" height="65" viewBox="0 0 151 65" fill="none" xmlns="http://www.w3.org/2000/svg">
<g clip-path="url(#clip0_1785_5075)">
<path d="M0.29248 31.287H5.83408V43.5526L25.7916 45.5908V50.9777L5.83408 48.9759V63.3161H0.29248V31.287Z" fill="white"/>
<path d="M38.7566 32.0151H44.1536V50.2133H38.7566V32.0151ZM40.5677 58.1479H59.5473C60.3078 58.1479 60.7425 57.7111 60.7425 56.9467V32.0151H66.3566V59.0213C66.3566 61.5691 64.9802 62.9521 62.4811 62.9521H40.5677L40.5677 58.1479Z" fill="white"/>
<path d="M76.2429 31.833H80.3358V30.1225H85.6241V31.833H89.7894V35.9822H76.2429V31.833ZM76.5327 44.1351H89.2098V48.1387H76.5327V44.1351ZM76.6776 38.0204H89.2098V42.024H76.6776V38.0204ZM76.7863 50.2497H88.9562V60.7319C88.9562 63.0613 87.7973 64.2261 85.4792 64.2261H76.7863V50.2497ZM83.2335 59.9313C83.8131 59.9313 84.1026 59.6401 84.1026 59.0213V54.5445H81.6396V59.9313H83.2335ZM90.6588 37.5836H91.2744C91.7815 37.5836 92.1075 37.3652 92.2524 36.9651L93.8098 30.6682H106.849L108.986 37.0015C109.095 37.4016 109.348 37.5836 109.819 37.5836H110.435V41.8784H107.791C105.908 41.8784 104.785 41.1504 104.459 39.6946L103.082 34.963H97.7216L96.5989 39.731C96.128 41.1504 95.0412 41.8784 93.3027 41.8784H90.6588V37.5836ZM90.695 44.8631H94.1359C95.1137 44.8631 95.7657 44.5719 96.0917 44.0259L97.9389 40.0222H102.937L100.04 46.6465C99.2065 48.1387 97.9389 48.8667 96.2366 48.8667H91.5642L90.695 44.8631ZM90.695 52.1425H97.6129C98.6272 52.1425 99.3152 51.8513 99.6412 51.3053L102.72 45.1907H107.719L103.589 54.1805C102.756 55.6729 101.452 56.4371 99.7499 56.4371H91.5642L90.695 52.1425ZM90.8399 59.9313H100.764C101.742 59.9313 102.43 59.6401 102.756 59.0941L105.256 53.9984H110.254L106.704 61.9695C105.871 63.4617 104.567 64.2261 102.865 64.2261H91.7091L90.8399 59.9313Z" fill="white"/>
<path d="M122.277 40.7139H126.913V38.7482H125.682C124.269 38.7482 123.509 38.1297 123.364 36.9287L122.965 30.7774H125.283L125.465 34.0897C125.501 34.5265 125.718 34.7449 126.117 34.7449H126.913V29.9769H131.912V34.7449H132.455C132.854 34.7449 133.035 34.5993 133.071 34.3081L133.614 30.7774H135.932L135.462 36.4555C135.353 37.9841 134.592 38.7482 133.216 38.7482H131.912V40.7139H136.439V45.0087H131.912V58.8029H126.913V45.0087H122.277V59.9313H136.729C137.345 59.9313 137.635 59.6401 137.635 59.0213V31.3962H144.734C145.313 31.3962 145.603 31.105 145.603 30.4862V29.8313H150.457V32.1971C150.457 34.5265 149.298 35.6911 146.979 35.6911H142.633V40.0587H151V44.3535H149.95V64.481H145.096V44.3535H142.633V60.7319C142.633 63.0613 141.474 64.2261 139.156 64.2261H117.279V29.9769H122.277V40.7139ZM126.153 46.4281L125.827 54.9449C125.718 56.4735 124.957 57.2379 123.581 57.2379H123.291L122.495 53.2343H122.82C123.219 53.2343 123.4 53.0887 123.436 52.7975L123.835 46.4281H126.153ZM135.208 46.4281L135.57 52.3973C135.606 52.8703 135.824 53.0887 136.186 53.0887H136.439V57.0923H135.462C134.121 57.0923 133.361 56.4735 133.252 55.2361L132.6 46.4281L135.208 46.4281Z" fill="white"/>
<path d="M0 17.9925H8.74819V3.94845H0.656815V0.411224H21.148V3.94845H12.7675V17.9925H21.8047V21.53H0V17.9925Z" fill="white"/>
<path d="M32.4465 2.127H42.1667V5.79642H32.4465V2.127ZM32.5778 18.6527H48.2614C48.8131 18.6527 49.1284 18.3357 49.1284 17.7815V0.147095H53.2004V19.471C53.2004 21.3187 52.2021 22.3221 50.3895 22.3221H32.5778L32.5778 18.6527Z" fill="white"/>
<path d="M64.4988 0.806979H74.219V4.34448H64.4988V0.806979ZM64.4988 7.06363H74.219V10.6009H64.4988V7.06363ZM64.6301 18.6527H80.3138C80.8654 18.6527 81.1808 18.3357 81.1808 17.7815V3.63178H85.2527V19.471C85.2527 21.3187 84.2544 22.3221 82.4416 22.3221H64.6301L64.6301 18.6527ZM79.8671 -1.43677H82.757V2.78688H79.8671V-1.43677ZM83.6765 -1.43677H86.566V2.78688H83.6765V-1.43677Z" fill="white"/>
<path d="M96.2886 17.8871H117.83V21.6619H96.2886V17.8871ZM97.3394 0.595963H116.78V4.37103H97.3394V0.595963Z" fill="white"/>
<path d="M141.083 10.6537H145.233C145.785 10.6537 146.074 10.3633 146.074 9.80905V4.42356C146.074 3.86933 145.785 3.55239 145.233 3.55239H128.21V0.0151672H147.335C148.99 0.0151672 149.883 0.939161 149.883 2.60213V11.6305C149.883 13.2937 148.99 14.1912 147.335 14.1912H141.083V10.6537ZM128.998 18.6527H134.462C135.014 18.6527 135.303 18.3357 135.303 17.7815V7.88196H139.349V19.6029C139.349 21.2924 138.429 22.1899 136.774 22.1899H128.998V18.6527Z" fill="white"/>
</g>
<defs>
<clipPath id="clip0_1785_5075">
<rect width="151" height="64.4435" fill="white" transform="translate(0 0.0374451)"/>
</clipPath>
</defs>
</svg>
